<?xml version="1.0" encoding="UTF-8" standalone="no"?> <svg viewBox="0 -35 511.99989 511" xmlns="http://www.w3.org/2000/svg"><path d="m290 150.5 34.648438 120h157.351562v-120zm0 0" fill="#cae9fc"/><path d="m30 270.5h452v160h-452zm0 0" fill="#fed2a4"/><path d="m90.109375 250.5-.109375 3v117h160v-120zm0 0" fill="#cae9fc"/><path d="m482 110.5v40c-44.796875 0-383.863281 0-432 0v-40c0-11.050781 8.949219-20 20-20h392c11.050781 0 20 8.949219 20 20zm0 0" fill="#424d63"/><path d="m442 30.5v60h-352v-60c0-11.050781 8.949219-20 20-20h312c11.050781 0 20 8.949219 20 20zm0 0" fill="#e87288"/><path d="m100 150.5-10 80h-80l40-80zm0 0" fill="#ffe781"/><path d="m170 230.5v20c0 22.089844-17.910156 40-40 40-21.078125 0-38.359375-16.320312-39.890625-37.011719-.070313-.988281-.109375-1.988281-.109375-2.988281v-20zm0 0" fill="#ffe781"/><path d="m230 150.5 20 80h-80l-10-80zm0 0" fill="#ffe781"/><path d="m330 230.5v20c0 21.984375-17.785156 40-40 40-22.089844 0-40-17.910156-40-40v-20zm0 0" fill="#ffe781"/><g fill="#e87288"><path d="m290 150.5 40 80h-80l-20-80zm0 0"/><path d="m250 230.5v20c0 22.089844-17.910156 40-40 40s-40-17.910156-40-40v-20zm0 0"/><path d="m160 150.5 10 80h-80l10-80zm0 0"/><path d="m90 230.5v20c0 22.089844-17.910156 40-40 40-22.101562 0-40-17.917969-40-40v-20zm0 0"/></g><path d="m366 330.5h60v100h-60zm0 0" fill="#424d63"/><path d="m266.25 40.5c-5.519531 0-10 4.480469-10 10s4.480469 10 10 10 10-4.480469 10-10-4.480469-10-10-10zm0 0"/><path d="m226.25 40.5h-76c-5.523438 0-10 4.476562-10 10s4.476562 10 10 10h76c5.523438 0 10-4.476562 10-10s-4.476562-10-10-10zm0 0"/><path d="m382.25 40.5h-76c-5.523438 0-10 4.476562-10 10s4.476562 10 10 10h76c5.523438 0 10-4.476562 10-10s-4.476562-10-10-10zm0 0"/><path d="m9.984375 420.5c-4.273437 0-8.183594 2.675781-9.472656 6.75-2.179688 6.902344 2.914062 13.25 9.488281 13.25h492.015625c4.273437 0 8.183594-2.675781 9.472656-6.75 2.179688-6.902344-2.914062-13.25-9.488281-13.25h-10v-310c0-16.570312-13.429688-30-30-30h-10v-50c0-16.570312-13.429688-30-30-30h-312c-16.570312 0-30 13.429688-30 30v50h-10c-16.570312 0-30 13.429688-30 30v37.640625l-38.945312 77.886719c-.660157 1.320312-1.054688 2.886718-1.054688 4.472656v20c0 15.777344 7.539062 30.597656 20 39.980469v130.019531zm25.023437-144.007812c-9.257812-5.355469-15.007812-15.3125-15.007812-25.992188v-10h60v10c0 16.542969-13.457031 30-30 30-5.269531 0-10.453125-1.386719-14.992188-4.007812zm116.414063-115.992188 7.5 60h-57.34375l7.5-60zm320.578125 100h-133.015625c.667969-3.28125 1.015625-6.628906 1.015625-10v-20c0-1.546875-.371094-3.105469-1.054688-4.472656l-32.765624-65.527344h165.820312zm-187.929688-100 30 60h-56.011718l-15-60zm-184.070312 80h60v9.4375c0 14.757812-10.449219 27.738281-25.007812 30.148438-17.726563 2.9375-33.636719-10.144532-34.90625-27.304688-.058594-.796875-.085938-1.5625-.085938-2.28125zm80 0h60v9.394531c0 15.78125-11.949219 29.332031-27.6875 30.519531-17.582031 1.324219-32.3125-12.605468-32.3125-29.914062zm42.441406-80 15 60h-58.363281l-7.5-60zm-122.441406 129.910156c8.402344 6.332032 18.816406 10.089844 30 10.089844 16.339844 0 30.871094-7.878906 40-20.035156 9.128906 12.15625 23.660156 20.035156 40 20.035156 11.246094 0 21.636719-3.734375 30-10.027344v70.027344h-140zm160-49.910156h60v10c0 5.269531-1.386719 10.453125-4.007812 14.992188-2.636719 4.5625-6.4375 8.363281-10.992188 10.996093-4.546875 2.625-9.730469 4.011719-15 4.011719-16.542969 0-30-13.457031-30-30zm156 180h-40v-80h40zm20 0v-90c0-5.523438-4.476562-10-10-10h-60c-5.523438 0-10 4.476562-10 10v90h-36v-130.015625c3.78125-2.839844 7.144531-6.203125 9.984375-9.984375h142.015625v140zm-326-400h312c5.523438 0 10 4.476562 10 10v50h-332v-50c0-5.523438 4.476562-10 10-10zm-40 80h392c5.523438 0 10 4.476562 10 10v30h-412v-30c0-5.523438 4.476562-10 10-10zm-13.570312 60h32.492187l-7.5 60h-54.992187zm-16.429688 138.984375c3.28125.667969 6.628906 1.015625 10 1.015625 11.246094 0 21.636719-3.734375 30-10.027344v80.027344c0 5.523438 4.476562 10 10 10h160c5.523438 0 10-4.476562 10-10v-80.027344c8.363281 6.292969 18.753906 10.027344 30 10.027344 3.371094 0 6.71875-.347656 10-1.015625v121.015625h-260zm0 0"/></svg>