<svg version="1.1" id="_x32_" xmlns="http://www.w3.org/2000/svg" xmlns:xlink="http://www.w3.org/1999/xlink" 
	 viewBox="0 0 512 512"  xml:space="preserve" fill="none">
<g>
	<path fill-rule="evenodd" clip-rule="evenodd" fill="currentColor" class="st0" d="M54.425,266.279c22.795,0,42.291-14.024,50.394-33.914c8.103,19.89,27.598,33.914,50.394,33.914
		c22.795,0,42.291-14.024,50.394-33.914c8.102,19.89,27.598,33.914,50.394,33.914c22.795,0,42.291-14.024,50.394-33.914
		c8.103,19.89,27.598,33.914,50.394,33.914c22.795,0,42.291-14.024,50.394-33.914c8.102,19.89,27.598,33.914,50.394,33.914
		c30.055,0,54.425-24.362,54.425-54.425H0C0,241.917,24.37,266.279,54.425,266.279z"/>
	<path fill-rule="evenodd" clip-rule="evenodd" fill="currentColor" class="st0" d="M438.283,44.886c-9.158-18.945-28.346-30.976-49.386-30.976H123.102c-21.039,0-40.228,12.032-49.386,30.976
		L0,197.343h512L438.283,44.886z"/>
	<path fill-rule="evenodd" clip-rule="evenodd" fill="currentColor" class="st0" d="M441.11,429.665c-0.008,8.929-3.567,16.85-9.417,22.724c-5.866,5.85-13.788,9.41-22.717,9.418H268.094V302.563
		h-24.189v159.244H103.023c-8.929-0.008-16.85-3.567-22.717-9.418c-5.85-5.874-9.409-13.795-9.416-22.724v-147.26H34.606v147.26
		c0.015,37.795,30.622,68.409,68.417,68.425h305.953c37.795-0.016,68.402-30.63,68.418-68.425v-147.26H441.11V429.665z"/>
	<rect fill="#161616" x="189.882" y="350.941" class="st0" width="24.189" height="56.441"/>
	<rect fill="#161616" x="297.929" y="350.941" class="st0" width="24.189" height="56.441"/>
</g>
</svg>