<?xml version="1.0" encoding="UTF-8" standalone="no"?> <svg id="Layer_1" data-name="Layer 1" xmlns="http://www.w3.org/2000/svg" viewBox="0 0 512 512"><title>Shop</title><path d="M416,253.333A85.107,85.107,0,0,1,362.667,234.6,85.3,85.3,0,0,1,256,234.6a85.3,85.3,0,0,1-106.667,0,85.155,85.155,0,0,1-74.667,16V416A53.4,53.4,0,0,0,128,469.333h21.333V320A10.667,10.667,0,0,1,160,309.333h74.667A10.667,10.667,0,0,1,245.333,320V469.333H384A53.4,53.4,0,0,0,437.333,416V250.6A85.585,85.585,0,0,1,416,253.333ZM362.667,362.667A10.667,10.667,0,0,1,352,373.333H309.333a10.667,10.667,0,0,1-10.667-10.667V320a10.667,10.667,0,0,1,10.667-10.667H352A10.667,10.667,0,0,1,362.667,320Z"/><path d="M266.667,215.607a63.723,63.723,0,0,0,85.333,0v-58.8a74.633,74.633,0,0,0-1.135-12.979L333.014,42.667H266.667Z"/><path d="M160,156.807v58.8a63.723,63.723,0,0,0,85.333,0V42.667H178.986l-17.85,101.161A74.633,74.633,0,0,0,160,156.807Z"/><path d="M475.635,154.339h-.005l-33.8-90.828a32.132,32.132,0,0,0-29.99-20.844H354.677l17.2,97.453a96.2,96.2,0,0,1,1.458,16.688v58.8A63.918,63.918,0,0,0,476.76,188.151C480.24,177.661,479.839,165.651,475.635,154.339Z"/><path d="M138.667,156.807a96.2,96.2,0,0,1,1.458-16.687l17.2-97.453H100.156A32.132,32.132,0,0,0,70.167,63.51l-33.8,90.828c-4.2,11.313-4.6,23.323-1.125,33.807a63.916,63.916,0,0,0,103.427,27.462Z"/></svg>